<svg xmlns="http://www.w3.org/2000/svg" width="19.991" height="19.991" viewBox="0 0 19.991 19.991"><path d="M30.878,25A5.9,5.9,0,0,0,25,30.878v8.235a5.9,5.9,0,0,0,5.878,5.878h8.235a5.9,5.9,0,0,0,5.878-5.878V30.878A5.9,5.9,0,0,0,39.113,25Zm0,1.817h8.235a4.055,4.055,0,0,1,4.061,4.061v8.235a4.055,4.055,0,0,1-4.061,4.061H30.878a4.055,4.055,0,0,1-4.061-4.061V30.878A4.055,4.055,0,0,1,30.878,26.817Zm9.484,1.988a.823.823,0,1,0,.824.823A.82.82,0,0,0,40.362,28.805ZM35,29.543A5.452,5.452,0,1,0,40.448,35,5.467,5.467,0,0,0,35,29.543Zm0,1.817A3.635,3.635,0,1,1,31.361,35,3.619,3.619,0,0,1,35,31.361Z" transform="translate(-25 -25)" fill="#fff"/></svg>