<svg id="Grundfos_Logo-A_neg" xmlns="http://www.w3.org/2000/svg" width="206.085" height="28.041" viewBox="0 0 206.085 28.041">
  <path id="Path_3" data-name="Path 3" d="M81.975,14.3v8.247L74.019,14.3H68.1V27.981h3.881v-8.15l7.956,8.15h5.919V14.3Z" transform="translate(-2.025 -0.425)" fill="#fff"/>
  <path id="Path_4" data-name="Path 4" d="M29.822,17.017h3.1c1.746,0,2.717.873,2.717,2.232,0,1.844-.873,2.523-3.493,2.523l3.881,6.21h6.4L38.36,22.159a3.629,3.629,0,0,0,3.3-3.978c0-3.881-3.881-3.881-6.4-3.881H24V28.078h5.725V17.017Z" transform="translate(-0.714 -0.425)" fill="#fff"/>
  <path id="Path_5" data-name="Path 5" d="M57.537,14.3v7.665a4.424,4.424,0,0,1-.776,2.814,2.911,2.911,0,0,1-2.232.776,3.1,3.1,0,0,1-2.232-.776,3.765,3.765,0,0,1-.776-2.814V14.3H45.7v8.053c0,2.135.485,3.1,1.358,3.978,1.455,1.455,4.172,2.038,7.471,2.038s6.016-.582,7.471-2.038c.97-.97,1.358-1.844,1.358-3.978V14.3Z" transform="translate(-1.359 -0.425)" fill="#fff"/>
  <path id="Path_6" data-name="Path 6" d="M99.629,25.167H96.622v-8.15h3.008c3.1,0,4.56,1.358,4.56,4.075s-1.649,4.075-4.56,4.075m.582-10.867H90.8V28.078h9.412c6.889,0,10.091-1.455,10.091-6.889S107.1,14.3,100.212,14.3" transform="translate(-2.7 -0.425)" fill="#fff"/>
  <path id="Path_7" data-name="Path 7" d="M142.47,25.64c-2.911,0-4.463-1.552-4.463-4.463s1.455-4.463,4.463-4.463,4.463,1.552,4.463,4.463c0,3.1-1.358,4.463-4.463,4.463m0-11.74c-7.568,0-10.77,2.717-10.77,7.18,0,4.948,3.3,7.374,10.77,7.374s10.77-2.426,10.77-7.374c0-4.463-3.3-7.18-10.77-7.18" transform="translate(-3.915 -0.413)" fill="#fff"/>
  <path id="Path_8" data-name="Path 8" d="M120.419,17.211h7.956l1.746-2.911H114.5V27.981h5.919V23.518h6.5l1.844-2.911h-8.344Z" transform="translate(-3.404 -0.425)" fill="#fff"/>
  <path id="Path_9" data-name="Path 9" d="M13.778,21.368v3.881s-1.649.194-2.523.194c-4.56,0-5.045-2.523-5.045-4.269,0-2.814,1.844-4.269,5.531-4.269a29.031,29.031,0,0,1,5.434.388l.679.1L19.7,14.382a70.2,70.2,0,0,0-8.829-.582C3.4,13.8,0,16.129,0,21.174S3.4,28.16,10.77,28.16a46.34,46.34,0,0,0,8.732-.776V21.368Z" transform="translate(0 -0.41)" fill="#fff"/>
  <path id="Path_10" data-name="Path 10" d="M168.037,19.425c-2.717-.388-4.366-.388-4.366-1.649s2.717-1.358,4.463-1.358a31.632,31.632,0,0,1,4.657.485l1.649-2.717a56.081,56.081,0,0,0-7.665-.485c-6.21,0-10.091,1.067-10.091,4.075,0,3.2,3.4,3.784,6.695,4.269,2.62.388,4.269.485,4.269,1.746s-2.329,1.552-4.56,1.552a26.828,26.828,0,0,1-4.948-.582l-1.941,3.1a57.247,57.247,0,0,0,8.538.485c6.889,0,10.091-1.261,10.091-4.657-.194-3.008-3.59-3.687-6.792-4.269" transform="translate(-4.644 -0.407)" fill="#fff"/>
  <path id="Path_11" data-name="Path 11" d="M191.474,28.085H184.1L194.385,17.8a15.694,15.694,0,0,1,1.941,1.746,15.7,15.7,0,0,1,1.746,1.941Z" transform="translate(-5.473 -0.529)" fill="#fff"/>
  <path id="Path_12" data-name="Path 12" d="M187.991,19.6c-3.881-4.754-4.948-6.792-6.016-9.315-.679-1.552-1.455-4.657.194-6.307,1.455-1.455,4.269-.97,7.083.291a41.2,41.2,0,0,1,10.576,7.374L211.472,0V7.374L200.8,18.047,199.053,16.3c-6.307-6.113-12.031-9.121-13.487-7.762-1.941,1.941,4.075,8.829,4.269,9.121Z" transform="translate(-5.387)" fill="#fff"/>
  <path id="Path_13" data-name="Path 13" d="M212.129,28.094h-4.172a21.609,21.609,0,0,0-1.941-3.687,23.587,23.587,0,0,0-2.717-3.493l2.814-2.814a31.533,31.533,0,0,1,3.4,4.754,22.065,22.065,0,0,1,2.62,5.239" transform="translate(-6.044 -0.538)" fill="#fff"/>
</svg>
