<svg xmlns="http://www.w3.org/2000/svg" width="23.626" height="18.173" viewBox="0 0 23.626 18.173"><path d="M26.813,30a58.384,58.384,0,0,0-8.292.625,3.6,3.6,0,0,0-3.038,2.9,32.328,32.328,0,0,0,0,11.131,3.6,3.6,0,0,0,3.038,2.9,58.737,58.737,0,0,0,8.292.625,58.737,58.737,0,0,0,8.292-.625,3.6,3.6,0,0,0,3.038-2.9,31.051,31.051,0,0,0,.483-5.566,30.715,30.715,0,0,0-.483-5.566,3.6,3.6,0,0,0-3.038-2.9A58.384,58.384,0,0,0,26.813,30Zm0,1.817a57.353,57.353,0,0,1,8.036.6,1.787,1.787,0,0,1,1.5,1.448,30.27,30.27,0,0,1,0,10.45,1.779,1.779,0,0,1-1.5,1.448,57.723,57.723,0,0,1-8.036.6,57.676,57.676,0,0,1-8.036-.6,1.783,1.783,0,0,1-1.5-1.448,30.27,30.27,0,0,1,0-10.45,1.783,1.783,0,0,1,1.5-1.448A57.308,57.308,0,0,1,26.813,31.817ZM24.087,33.89V44.283l1.363-.767,6.361-3.635,1.363-.8-1.363-.8L25.45,34.657ZM25.9,37.014l3.606,2.073L25.9,41.16Z" transform="translate(-15 -30)" fill="#fff"/></svg>